<svg width="76" height="18" viewBox="0 0 76 18" fill="none" xmlns="http://www.w3.org/2000/svg">
<path d="M60.7036 0C61.6241 0 62.0297 0.452845 61.9205 1.35854L61.7567 2.62174C61.6475 3.4162 61.1795 3.81344 60.3526 3.81344H58.6677C57.7628 3.81344 57.365 3.36059 57.4742 2.4549L57.638 1.1917C57.716 0.397233 58.1763 0 59.0187 0H60.7036Z" fill="#192122"/>
<path d="M61.3121 5.33881L59.6974 17.1843H55.4617L57.0764 5.33881H61.3121Z" fill="#192122"/>
<path fill-rule="evenodd" clip-rule="evenodd" d="M11.9114 0.953359C11.0689 0.683241 9.95346 0.548182 8.56497 0.548182C7.66011 0.548182 6.84886 0.556126 6.1312 0.572015C5.42916 0.572015 4.76611 0.587905 4.14207 0.619682C3.53364 0.635573 2.90959 0.675296 2.26995 0.738853L0 17.1843C0.733248 17.232 1.45089 17.2717 2.15295 17.3035C2.85499 17.3352 3.62724 17.3511 4.4697 17.3511C5.31215 17.367 6.31062 17.375 7.4651 17.375C8.77558 17.375 9.85205 17.2638 10.6945 17.0413C11.537 16.803 12.1844 16.3898 12.6368 15.8019C13.0893 15.1981 13.3935 14.3481 13.5495 13.2517C13.7367 11.917 13.6119 10.8604 13.1751 10.0818C12.7382 9.28731 11.8958 8.83446 10.6477 8.72324L10.6711 8.58023C11.7632 8.4849 12.5432 8.15122 13.0113 7.57921C13.4949 7.00719 13.8147 6.14917 13.9707 5.00514C14.1111 3.84521 14.0175 2.94747 13.6899 2.3119C13.3623 1.66043 12.7694 1.20759 11.9114 0.953359ZM8.40116 3.7181C9.0096 3.7181 9.40742 3.82933 9.59464 4.05178C9.79745 4.25834 9.85985 4.67146 9.78185 5.29114C9.65704 6.1015 9.44642 6.63379 9.15001 6.88802C8.86919 7.14225 8.36216 7.26936 7.62891 7.26936H5.66318L6.15461 3.7181H8.40116ZM5.26535 10.0579H7.5353C8.29975 10.0579 8.79118 10.1851 9.0096 10.4393C9.22801 10.6935 9.28261 11.2258 9.17341 12.0362C9.0798 12.6241 8.94719 13.0769 8.77558 13.3947C8.61957 13.7125 8.36995 13.927 8.02673 14.0382C7.68351 14.1494 7.22328 14.2051 6.64604 14.2051H4.70371L5.26535 10.0579Z" fill="#192122"/>
<path fill-rule="evenodd" clip-rule="evenodd" d="M25.8222 5.50565C24.9953 5.17197 23.8174 5.00514 22.2885 5.00514C20.9156 5.00514 19.7455 5.17197 18.7783 5.50565C17.811 5.82344 17.0466 6.42723 16.4849 7.31703C15.9233 8.19094 15.5489 9.46209 15.3617 11.1305C15.2212 12.5128 15.2993 13.6728 15.5957 14.6102C15.8921 15.5477 16.4927 16.2627 17.3976 16.7553C18.3025 17.232 19.5895 17.4703 21.2588 17.4703C22.1325 17.4703 23.0452 17.3988 23.9968 17.2558C24.9641 17.1128 25.8378 16.8665 26.6178 16.5169L26.3136 13.8475C25.8612 13.8952 25.3307 13.9429 24.7223 13.9905C24.1294 14.0223 23.5522 14.0541 22.9906 14.0859C22.4445 14.1018 21.9999 14.1097 21.6567 14.1097C20.9858 14.1097 20.4944 14.0223 20.1824 13.8475C19.8704 13.6569 19.7065 13.2279 19.6909 12.5605L22.897 12.2983C24.4259 12.1871 25.5725 11.9329 26.337 11.5356C27.117 11.1225 27.5851 10.3757 27.7411 9.29525C27.8815 8.35778 27.8035 7.57126 27.5071 6.93569C27.2262 6.30012 26.6646 5.82344 25.8222 5.50565ZM21.095 8.10355C21.3915 7.96055 21.7815 7.88905 22.2651 7.88905C22.858 7.87316 23.2558 7.92877 23.4586 8.05589C23.6614 8.183 23.7316 8.45312 23.6692 8.86624C23.6068 9.3747 23.4352 9.70043 23.1544 9.84343C22.8736 9.98644 22.4601 10.0818 21.9141 10.1294L19.9484 10.3439C20.0732 9.67659 20.2214 9.16814 20.393 8.81857C20.5802 8.46901 20.8142 8.23067 21.095 8.10355Z" fill="#192122"/>
<path d="M34.6943 5.00514C35.2871 5.02102 35.9345 5.0528 36.6366 5.10047C37.3386 5.13225 38.0173 5.18786 38.6725 5.26731C39.3278 5.34676 39.8816 5.43415 40.334 5.52948L39.983 8.07972H37.6897C36.9408 8.06383 36.2076 8.05589 35.4899 8.05589C34.6319 8.05589 34.0546 8.07972 33.7582 8.12739C33.4618 8.15917 33.298 8.28628 33.2668 8.50873C33.2356 8.71529 33.3058 8.87419 33.4774 8.98541C33.6646 9.09663 33.9922 9.2317 34.4602 9.39059L37.1748 10.2486C38.1109 10.5346 38.7973 10.9716 39.2342 11.5595C39.6866 12.1474 39.8582 12.926 39.749 13.8952C39.6242 14.9121 39.32 15.6748 38.8363 16.1833C38.3527 16.6917 37.6975 17.0254 36.8706 17.1843C36.0438 17.3591 35.0687 17.4465 33.9454 17.4465C33.1342 17.4465 32.2761 17.4147 31.3712 17.3511C30.482 17.2876 29.4601 17.1605 28.3056 16.9698L28.6801 14.3957C28.9141 14.4116 29.2495 14.4196 29.6863 14.4196H32.5413C33.3838 14.4196 34.0234 14.4037 34.4602 14.3719C34.8971 14.3401 35.2013 14.2845 35.3729 14.2051C35.5445 14.1097 35.6381 13.9826 35.6537 13.8237C35.6849 13.6171 35.6069 13.4662 35.4197 13.3709C35.2481 13.2755 34.8893 13.1405 34.3432 12.9657L31.7223 12.0838C30.6926 11.7502 29.9827 11.2576 29.5927 10.6061C29.2183 9.93877 29.0935 9.12841 29.2183 8.17505C29.3275 7.47593 29.5615 6.89596 29.9203 6.43517C30.2948 5.95849 30.8642 5.60099 31.6287 5.36264C32.3931 5.12431 33.415 5.00514 34.6943 5.00514Z" fill="#192122"/>
<path d="M46.0928 7.55537L46.046 5.33881H42.6996L41.0849 17.1843H45.344L46.3268 9.98644C46.9197 9.52565 47.4267 9.19992 47.8479 9.00924C48.2848 8.80268 48.6826 8.69146 49.0414 8.67557C49.4002 8.64379 49.6343 8.71529 49.7435 8.89007C49.8527 9.04897 49.8761 9.34292 49.8137 9.77193L48.784 17.1843H53.0431L54.26 8.38956C54.416 7.27731 54.1976 6.43517 53.6047 5.86316C53.0275 5.29114 52.2552 5.00514 51.288 5.00514C50.4299 5.00514 49.5407 5.23553 48.6202 5.69632C47.7153 6.14122 46.8729 6.7609 46.0928 7.55537Z" fill="#192122"/>
<path d="M67.8181 7.34086L68.7307 0.500512H64.4716L62.1783 17.1843H66.4374L66.9522 13.5377C66.9678 13.4106 66.9756 13.2676 66.9756 13.1087C67.2096 13.0292 67.4514 12.9498 67.701 12.8703L68.4499 12.5843L70.4858 17.1843H74.8619L72.709 12.5367C72.5842 12.2507 72.4282 11.9805 72.241 11.7263C72.0537 11.4562 71.8197 11.2099 71.5389 10.9875C72.4438 10.3678 73.2472 9.60509 73.9493 8.6994C74.6669 7.79371 75.1896 6.67352 75.5172 5.33881H71.1411C70.9071 6.33984 70.3922 7.27731 69.5966 8.15122C68.8009 9.00924 67.8883 9.70043 66.8586 10.2248C67.0926 9.7481 67.2876 9.27936 67.4436 8.81857C67.5996 8.3419 67.7245 7.84932 67.8181 7.34086Z" fill="#192122"/>
</svg>
